<?xml version="1.0" encoding="UTF-8"?>
<!DOCTYPE svg PUBLIC "-//W3C//DTD SVG 1.1//EN" "http://www.w3.org/Graphics/SVG/1.1/DTD/svg11.dtd">
<!-- Creator: CorelDRAW -->
<svg xmlns="http://www.w3.org/2000/svg" xml:space="preserve" width="100mm" height="100mm" version="1.1" style="shape-rendering:geometricPrecision; text-rendering:geometricPrecision; image-rendering:optimizeQuality; fill-rule:evenodd; clip-rule:evenodd"
viewBox="0 0 10000 10000"
 xmlns:xlink="http://www.w3.org/1999/xlink"
 xmlns:xodm="http://www.corel.com/coreldraw/odm/2003">
 <defs>
 </defs>
 <g id="Camada_x0020_1">
  <metadata id="CorelCorpID_0Corel-Layer"/>
  <g id="_1843360477776">
   <path class="fil0" d="M7543.1 6959.42l-1487.83 -3601.36 -288.25 307.79 1212.39 2934.64 248.79 602.22 -3.89 1.6 448.59 69.29 -129.8 -314.18zm-780.82 -214.13l-3666.55 -566.38 0.01 -0.01 -459 -70.91 -317.25 338.65 4613.86 712.73 -171.07 -414.08zm-3455.05 -792.16l2344.84 -2503.07 306.16 -326.91 -160.78 -389.16 -2949.22 3148.23 459 70.91z"/>
   <path class="fil0" d="M5286.41 4670.95l1523.88 1520.19 244.36 -406.2 -1621.33 -1625.46 -146.91 511.47zm-124.69 -697.45l-474.8 20.28 -636.8 1963.88 524.67 -103.77 316.03 -974.63 270.9 -905.76zm886.93 1904.93l-940.51 187.07 -1194.12 239.81 372.53 399.32 2154.9 -428.61 -392.8 -397.59z"/>
   <polygon class="fil1" points="5188.32,4966.37 4878.59,5810.46 5858.77,5636.62 "/>
   <path class="fil0" d="M5286.41 4670.95l1523.88 1520.19 244.36 -406.2 -1621.33 -1625.46 -146.91 511.47zm-124.69 -697.45l-474.8 20.28 -636.8 1963.88 524.67 -103.77 316.03 -974.63 270.9 -905.76zm886.93 1904.93l-940.51 187.07 -1194.12 239.81 372.53 399.32 2154.9 -428.61 -392.8 -397.59z"/>
   <polygon class="fil1" points="5188.32,4966.37 4878.59,5810.46 5858.77,5636.62 "/>
  </g>
 </g>
</svg>
